<?xml version="1.0" encoding="utf-8"?>
<!-- Uploaded to: SVG Repo, www.svgrepo.com, Generator: SVG Repo Mixer Tools -->
<svg width="800px" height="800px" viewBox="0 0 16 16" xmlns="http://www.w3.org/2000/svg" fill="none">
<g fill="#000000">
<path d="M12.26 1.45a.75.75 0 10-1.02 1.1l2.1 1.95H7.75a.75.75 0 000 1.5h5.59l-2.1 1.95a.75.75 0 101.02 1.1l3.5-3.25a.75.75 0 000-1.1l-3.5-3.25zM2.66 10l2.1-1.95a.75.75 0 10-1.02-1.1L.24 10.2a.75.75 0 000 1.1l3.5 3.25a.75.75 0 001.02-1.1l-2.1-1.95h5.59a.75.75 0 000-1.5H2.66z"/>
</g>
</svg>